<svg width="135" height="129" viewBox="0 0 135 129" fill="none" xmlns="http://www.w3.org/2000/svg">
<path d="M42.6856 125.111C42.6856 125.683 42.5161 126.243 42.1986 126.718C41.8812 127.193 41.43 127.564 40.9023 127.782C40.3746 128 39.7941 128.056 39.2345 127.944C38.6748 127.831 38.1612 127.554 37.7587 127.148C37.3561 126.743 37.0828 126.227 36.9734 125.665C36.864 125.104 36.9233 124.522 37.144 123.995C37.3646 123.467 37.7366 123.017 38.2128 122.702C38.6889 122.386 39.2479 122.22 39.8187 122.223C40.5805 122.227 41.3097 122.533 41.8469 123.074C42.3841 123.616 42.6856 124.348 42.6856 125.111Z" fill="#00CEB5"/>
<path d="M61.1446 125.111C61.1446 125.683 60.9755 126.241 60.6588 126.716C60.342 127.191 59.8917 127.562 59.365 127.78C58.8382 127.999 58.2586 128.056 57.6993 127.945C57.1401 127.833 56.6264 127.558 56.2233 127.154C55.8201 126.75 55.5455 126.235 55.4343 125.675C55.3231 125.115 55.3802 124.534 55.5984 124.006C55.8165 123.478 56.186 123.027 56.6601 122.71C57.1342 122.392 57.6916 122.223 58.2618 122.223C59.0263 122.223 59.7596 122.527 60.3002 123.069C60.8409 123.611 61.1446 124.345 61.1446 125.111Z" fill="#00CEB5"/>
<path d="M79.6368 125.111C79.6368 125.683 79.4677 126.241 79.1509 126.716C78.8342 127.191 78.3839 127.562 77.8572 127.78C77.3304 127.999 76.7507 128.056 76.1915 127.945C75.6323 127.833 75.1186 127.558 74.7155 127.154C74.3123 126.75 74.0377 126.235 73.9265 125.675C73.8153 125.115 73.8723 124.534 74.0905 124.006C74.3087 123.478 74.6782 123.027 75.1523 122.71C75.6264 122.392 76.1838 122.223 76.7539 122.223C77.1325 122.223 77.5074 122.297 77.8572 122.443C78.2069 122.588 78.5247 122.801 78.7924 123.069C79.0601 123.337 79.2725 123.655 79.4173 124.006C79.5622 124.356 79.6368 124.732 79.6368 125.111Z" fill="#00CEB5"/>
<path d="M98.0807 125.111C98.0839 125.687 97.9165 126.25 97.5999 126.73C97.2833 127.209 96.8317 127.584 96.3023 127.806C95.7729 128.029 95.1896 128.089 94.6262 127.978C94.0629 127.868 93.5449 127.593 93.1379 127.187C92.7309 126.781 92.4532 126.264 92.3401 125.7C92.2269 125.136 92.2834 124.551 92.5023 124.02C92.7212 123.488 93.0928 123.033 93.5698 122.713C94.0469 122.393 94.6079 122.223 95.1819 122.223C95.948 122.223 96.6829 122.526 97.2261 123.068C97.7692 123.609 98.0765 124.344 98.0807 125.111Z" fill="#00CEB5"/>
<path d="M24.2247 107.651C24.2247 108.222 24.0556 108.781 23.7388 109.256C23.4221 109.731 22.9718 110.101 22.445 110.32C21.9183 110.539 21.3386 110.596 20.7794 110.484C20.2202 110.373 19.7065 110.098 19.3034 109.694C18.9002 109.29 18.6256 108.775 18.5144 108.215C18.4031 107.654 18.4602 107.073 18.6784 106.545C18.8966 106.018 19.2661 105.566 19.7402 105.249C20.2143 104.932 20.7717 104.762 21.3418 104.762C21.7204 104.762 22.0953 104.837 22.445 104.982C22.7948 105.127 23.1126 105.34 23.3803 105.608C23.648 105.877 23.8604 106.195 24.0052 106.545C24.1501 106.896 24.2247 107.272 24.2247 107.651Z" fill="#00CEB5"/>
<path d="M42.6856 107.651C42.6856 108.223 42.5161 108.782 42.1986 109.258C41.8812 109.733 41.43 110.103 40.9023 110.321C40.3746 110.54 39.7941 110.596 39.2345 110.483C38.6748 110.37 38.1612 110.094 37.7587 109.688C37.3561 109.282 37.0828 108.766 36.9734 108.205C36.864 107.643 36.9233 107.062 37.144 106.534C37.3646 106.007 37.7366 105.557 38.2128 105.241C38.6889 104.926 39.2479 104.759 39.8187 104.762C40.5805 104.766 41.3097 105.073 41.8469 105.614C42.3841 106.155 42.6856 106.888 42.6856 107.651Z" fill="#00CEB5"/>
<path d="M61.1446 107.651C61.1446 108.222 60.9755 108.781 60.6588 109.256C60.342 109.731 59.8917 110.101 59.365 110.32C58.8382 110.539 58.2586 110.596 57.6993 110.484C57.1401 110.373 56.6264 110.098 56.2233 109.694C55.8201 109.29 55.5455 108.775 55.4343 108.215C55.3231 107.654 55.3802 107.073 55.5984 106.545C55.8165 106.018 56.186 105.566 56.6601 105.249C57.1342 104.932 57.6916 104.762 58.2618 104.762C59.0263 104.762 59.7596 105.067 60.3002 105.608C60.8409 106.15 61.1446 106.885 61.1446 107.651Z" fill="#00CEB5"/>
<path d="M79.6368 107.651C79.6368 108.222 79.4677 108.781 79.1509 109.256C78.8342 109.731 78.3839 110.101 77.8572 110.32C77.3304 110.539 76.7507 110.596 76.1915 110.484C75.6323 110.373 75.1186 110.098 74.7155 109.694C74.3123 109.29 74.0377 108.775 73.9265 108.215C73.8153 107.654 73.8723 107.073 74.0905 106.545C74.3087 106.018 74.6782 105.566 75.1523 105.249C75.6264 104.932 76.1838 104.762 76.7539 104.762C77.1325 104.762 77.5074 104.837 77.8572 104.982C78.2069 105.127 78.5247 105.34 78.7924 105.608C79.0601 105.877 79.2725 106.195 79.4173 106.545C79.5622 106.896 79.6368 107.272 79.6368 107.651Z" fill="#00CEB5"/>
<path d="M98.0807 107.651C98.0839 108.226 97.9165 108.789 97.5999 109.269C97.2833 109.749 96.8317 110.124 96.3023 110.346C95.7729 110.568 95.1896 110.628 94.6262 110.518C94.0629 110.408 93.5449 110.132 93.1379 109.727C92.7309 109.321 92.4532 108.803 92.3401 108.24C92.2269 107.676 92.2834 107.091 92.5023 106.559C92.7212 106.027 93.0928 105.573 93.5698 105.253C94.0469 104.933 94.6079 104.762 95.1819 104.762C95.948 104.762 96.6829 105.066 97.2261 105.607C97.7692 106.149 98.0765 106.883 98.0807 107.651Z" fill="#00CEB5"/>
<path d="M116.54 107.651C116.543 108.227 116.375 108.791 116.058 109.271C115.741 109.751 115.288 110.126 114.758 110.348C114.227 110.569 113.643 110.628 113.079 110.517C112.516 110.405 111.998 110.128 111.591 109.721C111.185 109.314 110.908 108.795 110.797 108.23C110.686 107.665 110.745 107.079 110.966 106.548C111.187 106.017 111.561 105.563 112.04 105.245C112.52 104.927 113.082 104.759 113.657 104.762C114.421 104.762 115.155 105.067 115.695 105.608C116.236 106.15 116.54 106.885 116.54 107.651Z" fill="#00CEB5"/>
<path d="M24.2247 90.1905C24.2247 90.7619 24.0556 91.3204 23.7388 91.7955C23.4221 92.2705 22.9718 92.6408 22.445 92.8594C21.9183 93.0781 21.3386 93.1353 20.7794 93.0238C20.2202 92.9123 19.7065 92.6372 19.3034 92.2332C18.9002 91.8292 18.6256 91.3145 18.5144 90.7541C18.4031 90.1937 18.4602 89.6129 18.6784 89.085C18.8966 88.5572 19.2661 88.106 19.7402 87.7886C20.2143 87.4712 20.7717 87.3018 21.3418 87.3018C21.7204 87.3018 22.0953 87.3765 22.445 87.5216C22.7948 87.6668 23.1126 87.8796 23.3803 88.1479C23.648 88.4161 23.8604 88.7346 24.0052 89.085C24.1501 89.4355 24.2247 89.8112 24.2247 90.1905Z" fill="#00CEB5"/>
<path d="M42.6856 90.1906C42.6856 90.7626 42.5161 91.3217 42.1986 91.7971C41.8812 92.2725 41.43 92.6428 40.9023 92.861C40.3746 93.0791 39.7941 93.1354 39.2345 93.0226C38.6748 92.9099 38.1612 92.6331 37.7587 92.2275C37.3561 91.8219 37.0828 91.3057 36.9734 90.7443C36.864 90.1829 36.9233 89.6016 37.144 89.074C37.3646 88.5464 37.7366 88.0964 38.2128 87.7809C38.6889 87.4654 39.2479 87.2986 39.8187 87.3018C40.5805 87.306 41.3097 87.6122 41.8469 88.1535C42.3841 88.6948 42.6856 89.4272 42.6856 90.1906Z" fill="#00CEB5"/>
<path d="M61.1446 90.1905C61.1446 90.7619 60.9755 91.3204 60.6588 91.7955C60.342 92.2705 59.8917 92.6408 59.365 92.8594C58.8382 93.0781 58.2586 93.1353 57.6993 93.0238C57.1401 92.9123 56.6264 92.6372 56.2233 92.2332C55.8201 91.8292 55.5455 91.3145 55.4343 90.7541C55.3231 90.1937 55.3802 89.6129 55.5984 89.085C55.8165 88.5572 56.186 88.106 56.6601 87.7886C57.1342 87.4712 57.6916 87.3018 58.2618 87.3018C58.6403 87.3018 59.0152 87.3765 59.365 87.5216C59.7147 87.6668 60.0325 87.8796 60.3002 88.1479C60.5679 88.4161 60.7803 88.7346 60.9252 89.085C61.07 89.4355 61.1446 89.8112 61.1446 90.1905Z" fill="#00CEB5"/>
<path d="M79.6368 90.1905C79.6368 90.7619 79.4677 91.3204 79.1509 91.7955C78.8342 92.2705 78.3839 92.6408 77.8572 92.8594C77.3304 93.0781 76.7507 93.1353 76.1915 93.0238C75.6323 92.9123 75.1186 92.6372 74.7155 92.2332C74.3123 91.8292 74.0377 91.3145 73.9265 90.7541C73.8153 90.1937 73.8723 89.6129 74.0905 89.085C74.3087 88.5572 74.6782 88.106 75.1523 87.7886C75.6264 87.4712 76.1838 87.3018 76.7539 87.3018C77.1325 87.3018 77.5074 87.3765 77.8572 87.5216C78.2069 87.6668 78.5247 87.8796 78.7924 88.1479C79.0601 88.4161 79.2725 88.7346 79.4173 89.085C79.5622 89.4355 79.6368 89.8112 79.6368 90.1905Z" fill="#00CEB5"/>
<path d="M98.0807 90.1905C98.0839 90.7657 97.9165 91.3289 97.5999 91.8086C97.2833 92.2884 96.8317 92.6632 96.3023 92.8855C95.7729 93.1078 95.1896 93.1676 94.6262 93.0573C94.0629 92.9471 93.5449 92.6717 93.1379 92.2661C92.7309 91.8605 92.4532 91.343 92.3401 90.7791C92.2269 90.2152 92.2834 89.6303 92.5023 89.0986C92.7212 88.5669 93.0928 88.1123 93.5698 87.7924C94.0469 87.4725 94.6079 87.3018 95.1819 87.3018C95.948 87.3017 96.6829 87.6056 97.2261 88.1469C97.7692 88.6882 98.0765 89.4229 98.0807 90.1905Z" fill="#00CEB5"/>
<path d="M116.54 90.1906C116.543 90.7664 116.375 91.3302 116.058 91.8103C115.741 92.2905 115.288 92.6652 114.758 92.8871C114.227 93.1089 113.643 93.1678 113.079 93.0562C112.516 92.9446 111.998 92.6676 111.591 92.2605C111.185 91.8533 110.908 91.3342 110.797 90.7693C110.686 90.2043 110.745 89.619 110.966 89.0876C111.187 88.5561 111.561 88.1026 112.04 87.7847C112.52 87.4667 113.082 87.2986 113.657 87.3018C114.035 87.3018 114.41 87.3765 114.76 87.5217C115.11 87.6669 115.428 87.8797 115.695 88.1479C115.963 88.4162 116.175 88.7346 116.32 89.0851C116.465 89.4356 116.54 89.8112 116.54 90.1906Z" fill="#00CEB5"/>
<path d="M5.76569 72.7306C5.76569 73.3019 5.59662 73.8604 5.27985 74.3355C4.96307 74.8105 4.51284 75.1808 3.98606 75.3995C3.45929 75.6181 2.87965 75.6753 2.32043 75.5638C1.76121 75.4524 1.24754 75.1773 0.844367 74.7733C0.441194 74.3692 0.16663 73.8545 0.0553944 73.2941C-0.0558409 72.7338 0.0012491 72.1529 0.219445 71.6251C0.437641 71.0972 0.807142 70.6461 1.28122 70.3286C1.75531 70.0112 2.31267 69.8418 2.88285 69.8418C3.64743 69.8418 4.38069 70.1462 4.92133 70.6879C5.46197 71.2297 5.76569 71.9644 5.76569 72.7306Z" fill="#00CEB5"/>
<path d="M24.2247 72.7306C24.2247 73.3019 24.0556 73.8604 23.7388 74.3355C23.4221 74.8105 22.9718 75.1808 22.445 75.3995C21.9183 75.6181 21.3386 75.6753 20.7794 75.5638C20.2202 75.4524 19.7065 75.1773 19.3034 74.7733C18.9002 74.3692 18.6256 73.8545 18.5144 73.2941C18.4031 72.7338 18.4602 72.1529 18.6784 71.6251C18.8966 71.0972 19.2661 70.6461 19.7402 70.3286C20.2143 70.0112 20.7717 69.8418 21.3418 69.8418C21.7204 69.8418 22.0953 69.9165 22.445 70.0617C22.7948 70.2069 23.1126 70.4197 23.3803 70.6879C23.648 70.9562 23.8604 71.2746 24.0052 71.6251C24.1501 71.9756 24.2247 72.3512 24.2247 72.7306Z" fill="#00CEB5"/>
<path d="M42.6856 72.7306C42.6856 73.3026 42.5161 73.8618 42.1986 74.3372C41.8812 74.8126 41.43 75.1828 40.9023 75.401C40.3746 75.6192 39.7941 75.6754 39.2345 75.5627C38.6748 75.4499 38.1612 75.1732 37.7587 74.7676C37.3561 74.362 37.0828 73.8458 36.9734 73.2843C36.864 72.7229 36.9233 72.1416 37.144 71.614C37.3646 71.0865 37.7366 70.6364 38.2128 70.3209C38.6889 70.0054 39.2479 69.8387 39.8187 69.8418C40.5805 69.8461 41.3097 70.1523 41.8469 70.6936C42.3841 71.2349 42.6856 71.9672 42.6856 72.7306Z" fill="#00CEB5"/>
<path d="M61.1446 72.7306C61.1446 73.3019 60.9755 73.8604 60.6588 74.3355C60.342 74.8105 59.8917 75.1808 59.365 75.3995C58.8382 75.6181 58.2586 75.6753 57.6993 75.5638C57.1401 75.4524 56.6264 75.1773 56.2233 74.7733C55.8201 74.3692 55.5455 73.8545 55.4343 73.2941C55.3231 72.7338 55.3802 72.1529 55.5984 71.6251C55.8165 71.0972 56.186 70.6461 56.6601 70.3286C57.1342 70.0112 57.6916 69.8418 58.2618 69.8418C59.0263 69.8418 59.7596 70.1462 60.3002 70.6879C60.8409 71.2297 61.1446 71.9644 61.1446 72.7306Z" fill="#00CEB5"/>
<path d="M79.6368 72.7306C79.6368 73.3019 79.4677 73.8604 79.1509 74.3355C78.8342 74.8105 78.3839 75.1808 77.8572 75.3995C77.3304 75.6181 76.7507 75.6753 76.1915 75.5638C75.6323 75.4524 75.1186 75.1773 74.7155 74.7733C74.3123 74.3692 74.0377 73.8545 73.9265 73.2941C73.8153 72.7338 73.8723 72.1529 74.0905 71.6251C74.3087 71.0972 74.6782 70.6461 75.1523 70.3286C75.6264 70.0112 76.1838 69.8418 76.7539 69.8418C77.1325 69.8418 77.5074 69.9165 77.8572 70.0617C78.2069 70.2069 78.5247 70.4197 78.7924 70.6879C79.0601 70.9562 79.2725 71.2746 79.4173 71.6251C79.5622 71.9756 79.6368 72.3512 79.6368 72.7306Z" fill="#00CEB5"/>
<path d="M98.0807 72.7306C98.0839 73.3057 97.9165 73.8689 97.5999 74.3487C97.2833 74.8285 96.8317 75.2033 96.3023 75.4256C95.7729 75.6479 95.1896 75.7077 94.6262 75.5974C94.0629 75.4871 93.5449 75.2117 93.1379 74.8061C92.7309 74.4006 92.4532 73.883 92.3401 73.3191C92.2269 72.7552 92.2834 72.1704 92.5023 71.6387C92.7212 71.107 93.0928 70.6524 93.5698 70.3325C94.0469 70.0126 94.6079 69.8418 95.1819 69.8418C95.948 69.8418 96.6829 70.1456 97.2261 70.6869C97.7692 71.2282 98.0765 71.963 98.0807 72.7306Z" fill="#00CEB5"/>
<path d="M116.54 72.7306C116.543 73.3065 116.375 73.8703 116.058 74.3504C115.741 74.8305 115.288 75.2053 114.758 75.4271C114.227 75.6489 113.643 75.7078 113.079 75.5962C112.516 75.4847 111.998 75.2077 111.591 74.8005C111.185 74.3933 110.908 73.8743 110.797 73.3093C110.686 72.7444 110.745 72.159 110.966 71.6276C111.187 71.0962 111.561 70.6427 112.04 70.3247C112.52 70.0068 113.082 69.8387 113.657 69.8418C114.421 69.8418 115.155 70.1462 115.695 70.6879C116.236 71.2297 116.54 71.9645 116.54 72.7306Z" fill="#00CEB5"/>
<path d="M135.001 72.7302C135.004 73.3094 134.834 73.8762 134.512 74.3579C134.191 74.8395 133.734 75.214 133.199 75.4332C132.664 75.6524 132.076 75.7064 131.51 75.5881C130.944 75.4699 130.427 75.1848 130.024 74.7696C129.621 74.3543 129.351 73.8279 129.249 73.2578C129.147 72.6877 129.217 72.1 129.451 71.5703C129.684 71.0405 130.071 70.5929 130.56 70.2848C131.05 69.9767 131.62 69.8223 132.197 69.8414C132.948 69.8622 133.661 70.1757 134.185 70.7152C134.708 71.2547 135.001 71.9777 135.001 72.7302Z" fill="#00CEB5"/>
<path d="M5.76569 55.2701C5.76569 55.8415 5.59662 56.4 5.27985 56.875C4.96307 57.3501 4.51284 57.7204 3.98606 57.939C3.45929 58.1577 2.87965 58.2149 2.32043 58.1034C1.76121 57.9919 1.24754 57.7168 0.844367 57.3128C0.441194 56.9088 0.16663 56.3941 0.0553944 55.8337C-0.0558409 55.2733 0.0012491 54.6925 0.219445 54.1646C0.437641 53.6368 0.807142 53.1856 1.28122 52.8682C1.75531 52.5508 2.31267 52.3813 2.88285 52.3813C3.26143 52.3813 3.6363 52.4561 3.98606 52.6012C4.33583 52.7464 4.65363 52.9592 4.92133 53.2274C5.18902 53.4957 5.40137 53.8142 5.54625 54.1646C5.69113 54.5151 5.76569 54.8908 5.76569 55.2701Z" fill="#00CEB5"/>
<path d="M24.2247 55.2701C24.2247 55.8415 24.0556 56.4 23.7388 56.875C23.4221 57.3501 22.9718 57.7204 22.445 57.939C21.9183 58.1577 21.3386 58.2149 20.7794 58.1034C20.2202 57.9919 19.7065 57.7168 19.3034 57.3128C18.9002 56.9088 18.6256 56.3941 18.5144 55.8337C18.4031 55.2733 18.4602 54.6925 18.6784 54.1646C18.8966 53.6368 19.2661 53.1856 19.7402 52.8682C20.2143 52.5508 20.7717 52.3813 21.3418 52.3813C21.7204 52.3813 22.0953 52.4561 22.445 52.6012C22.7948 52.7464 23.1126 52.9592 23.3803 53.2274C23.648 53.4957 23.8604 53.8142 24.0052 54.1646C24.1501 54.5151 24.2247 54.8908 24.2247 55.2701Z" fill="#00CEB5"/>
<path d="M42.6856 55.2702C42.6856 55.8422 42.5161 56.4013 42.1986 56.8767C41.8812 57.3521 41.43 57.7224 40.9023 57.9405C40.3746 58.1587 39.7941 58.215 39.2345 58.1022C38.6748 57.9894 38.1612 57.7127 37.7587 57.3071C37.3561 56.9015 37.0828 56.3853 36.9734 55.8239C36.864 55.2625 36.9233 54.6811 37.144 54.1536C37.3646 53.626 37.7366 53.176 38.2128 52.8605C38.6889 52.545 39.2479 52.3782 39.8187 52.3814C40.5805 52.3856 41.3097 52.6918 41.8469 53.2331C42.3841 53.7744 42.6856 54.5068 42.6856 55.2702Z" fill="#00CEB5"/>
<path d="M61.1446 55.2701C61.1446 55.8415 60.9755 56.4 60.6588 56.875C60.342 57.3501 59.8917 57.7204 59.365 57.939C58.8382 58.1577 58.2586 58.2149 57.6993 58.1034C57.1401 57.9919 56.6264 57.7168 56.2233 57.3128C55.8201 56.9088 55.5455 56.3941 55.4343 55.8337C55.3231 55.2733 55.3802 54.6925 55.5984 54.1646C55.8165 53.6368 56.186 53.1856 56.6601 52.8682C57.1342 52.5508 57.6916 52.3813 58.2618 52.3813C58.6403 52.3813 59.0152 52.4561 59.365 52.6012C59.7147 52.7464 60.0325 52.9592 60.3002 53.2274C60.5679 53.4957 60.7803 53.8142 60.9252 54.1646C61.07 54.5151 61.1446 54.8908 61.1446 55.2701Z" fill="#00CEB5"/>
<path d="M79.6368 55.2701C79.6368 55.8415 79.4677 56.4 79.1509 56.875C78.8342 57.3501 78.3839 57.7204 77.8572 57.939C77.3304 58.1577 76.7507 58.2149 76.1915 58.1034C75.6323 57.9919 75.1186 57.7168 74.7155 57.3128C74.3123 56.9088 74.0377 56.3941 73.9265 55.8337C73.8153 55.2733 73.8723 54.6925 74.0905 54.1646C74.3087 53.6368 74.6782 53.1856 75.1523 52.8682C75.6264 52.5508 76.1838 52.3813 76.7539 52.3813C77.1325 52.3813 77.5074 52.4561 77.8572 52.6012C78.2069 52.7464 78.5247 52.9592 78.7924 53.2274C79.0601 53.4957 79.2725 53.8142 79.4173 54.1646C79.5622 54.5151 79.6368 54.8908 79.6368 55.2701Z" fill="#00CEB5"/>
<path d="M98.0807 55.2701C98.0839 55.8453 97.9165 56.4085 97.5999 56.8882C97.2833 57.368 96.8317 57.7428 96.3023 57.9651C95.7729 58.1874 95.1896 58.2472 94.6262 58.1369C94.0629 58.0267 93.5449 57.7513 93.1379 57.3457C92.7309 56.9401 92.4532 56.4226 92.3401 55.8587C92.2269 55.2948 92.2834 54.7099 92.5023 54.1782C92.7212 53.6465 93.0928 53.1919 93.5698 52.872C94.0469 52.5521 94.6079 52.3814 95.1819 52.3813C95.948 52.3813 96.6829 52.6852 97.2261 53.2265C97.7692 53.7678 98.0765 54.5025 98.0807 55.2701Z" fill="#00CEB5"/>
<path d="M116.54 55.2702C116.543 55.846 116.375 56.4098 116.058 56.8899C115.741 57.3701 115.288 57.7448 114.758 57.9667C114.227 58.1885 113.643 58.2474 113.079 58.1358C112.516 58.0242 111.998 57.7472 111.591 57.34C111.185 56.9329 110.908 56.4138 110.797 55.8489C110.686 55.2839 110.745 54.6986 110.966 54.1671C111.187 53.6357 111.561 53.1822 112.04 52.8643C112.52 52.5463 113.082 52.3782 113.657 52.3814C114.035 52.3814 114.41 52.4561 114.76 52.6013C115.11 52.7465 115.428 52.9592 115.695 53.2275C115.963 53.4957 116.175 53.8142 116.32 54.1647C116.465 54.5152 116.54 54.8908 116.54 55.2702Z" fill="#00CEB5"/>
<path d="M135.001 55.2702C135.004 55.8494 134.834 56.4162 134.512 56.8979C134.191 57.3795 133.734 57.754 133.199 57.9733C132.664 58.1925 132.076 58.2464 131.51 58.1282C130.944 58.0099 130.427 57.7249 130.024 57.3096C129.621 56.8944 129.351 56.3679 129.249 55.7978C129.147 55.2277 129.217 54.6401 129.451 54.1103C129.684 53.5806 130.071 53.1329 130.56 52.8248C131.05 52.5168 131.62 52.3624 132.197 52.3815C132.948 52.4022 133.661 52.7158 134.185 53.2553C134.708 53.7948 135.001 54.5177 135.001 55.2702Z" fill="#00CEB5"/>
<path d="M24.2247 37.8097C24.2247 38.381 24.0556 38.9395 23.7388 39.4146C23.4221 39.8897 22.9718 40.2599 22.445 40.4786C21.9183 40.6972 21.3386 40.7544 20.7794 40.6429C20.2202 40.5315 19.7065 40.2564 19.3034 39.8524C18.9002 39.4483 18.6256 38.9336 18.5144 38.3732C18.4031 37.8129 18.4602 37.232 18.6784 36.7042C18.8966 36.1763 19.2661 35.7252 19.7402 35.4077C20.2143 35.0903 20.7717 34.9209 21.3418 34.9209C21.7204 34.9209 22.0953 34.9956 22.445 35.1408C22.7948 35.286 23.1126 35.4988 23.3803 35.767C23.648 36.0353 23.8604 36.3537 24.0052 36.7042C24.1501 37.0547 24.2247 37.4303 24.2247 37.8097Z" fill="#00CEB5"/>
<path d="M42.6856 37.8097C42.6856 38.3817 42.5161 38.9409 42.1986 39.4163C41.8812 39.8917 41.43 40.2619 40.9023 40.4801C40.3746 40.6983 39.7941 40.7545 39.2345 40.6418C38.6748 40.529 38.1612 40.2523 37.7587 39.8467C37.3561 39.4411 37.0828 38.9249 36.9734 38.3634C36.864 37.802 36.9233 37.2207 37.144 36.6931C37.3646 36.1656 37.7366 35.7155 38.2128 35.4C38.6889 35.0845 39.2479 34.9178 39.8187 34.9209C40.5805 34.9252 41.3097 35.2314 41.8469 35.7727C42.3841 36.314 42.6856 37.0463 42.6856 37.8097Z" fill="#00CEB5"/>
<path d="M61.1446 37.8097C61.1446 38.381 60.9755 38.9395 60.6588 39.4146C60.342 39.8897 59.8917 40.2599 59.365 40.4786C58.8382 40.6972 58.2586 40.7544 57.6993 40.6429C57.1401 40.5315 56.6264 40.2564 56.2233 39.8524C55.8201 39.4483 55.5455 38.9336 55.4343 38.3732C55.3231 37.8129 55.3802 37.232 55.5984 36.7042C55.8165 36.1763 56.186 35.7252 56.6601 35.4077C57.1342 35.0903 57.6916 34.9209 58.2618 34.9209C59.0263 34.9209 59.7596 35.2253 60.3002 35.767C60.8409 36.3088 61.1446 37.0435 61.1446 37.8097Z" fill="#00CEB5"/>
<path d="M79.6368 37.8097C79.6368 38.381 79.4677 38.9395 79.1509 39.4146C78.8342 39.8897 78.3839 40.2599 77.8572 40.4786C77.3304 40.6972 76.7507 40.7544 76.1915 40.6429C75.6323 40.5315 75.1186 40.2564 74.7155 39.8524C74.3123 39.4483 74.0377 38.9336 73.9265 38.3732C73.8153 37.8129 73.8723 37.232 74.0905 36.7042C74.3087 36.1763 74.6782 35.7252 75.1523 35.4077C75.6264 35.0903 76.1838 34.9209 76.7539 34.9209C77.1325 34.9209 77.5074 34.9956 77.8572 35.1408C78.2069 35.286 78.5247 35.4988 78.7924 35.767C79.0601 36.0353 79.2725 36.3537 79.4173 36.7042C79.5622 37.0547 79.6368 37.4303 79.6368 37.8097Z" fill="#00CEB5"/>
<path d="M98.0807 37.8097C98.0839 38.3849 97.9165 38.948 97.5999 39.4278C97.2833 39.9076 96.8317 40.2824 96.3023 40.5047C95.7729 40.727 95.1896 40.7868 94.6262 40.6765C94.0629 40.5662 93.5449 40.2908 93.1379 39.8852C92.7309 39.4797 92.4532 38.9621 92.3401 38.3982C92.2269 37.8343 92.2834 37.2495 92.5023 36.7178C92.7212 36.1861 93.0928 35.7315 93.5698 35.4116C94.0469 35.0917 94.6079 34.9209 95.1819 34.9209C95.948 34.9209 96.6829 35.2247 97.2261 35.766C97.7692 36.3073 98.0765 37.0421 98.0807 37.8097Z" fill="#00CEB5"/>
<path d="M116.54 37.8097C116.543 38.3856 116.375 38.9494 116.058 39.4295C115.741 39.9096 115.288 40.2844 114.758 40.5062C114.227 40.728 113.643 40.7869 113.079 40.6753C112.516 40.5638 111.998 40.2868 111.591 39.8796C111.185 39.4724 110.908 38.9534 110.797 38.3884C110.686 37.8235 110.745 37.2381 110.966 36.7067C111.187 36.1753 111.561 35.7218 112.04 35.4038C112.52 35.0859 113.082 34.9178 113.657 34.9209C114.421 34.9209 115.155 35.2253 115.695 35.767C116.236 36.3088 116.54 37.0436 116.54 37.8097Z" fill="#00CEB5"/>
<path d="M24.2247 20.3492C24.2247 20.9206 24.0556 21.4791 23.7388 21.9541C23.4221 22.4292 22.9718 22.7995 22.445 23.0181C21.9183 23.2368 21.3386 23.294 20.7794 23.1825C20.2202 23.071 19.7065 22.7959 19.3034 22.3919C18.9002 21.9879 18.6256 21.4732 18.5144 20.9128C18.4031 20.3524 18.4602 19.7716 18.6784 19.2437C18.8966 18.7159 19.2661 18.2647 19.7402 17.9473C20.2143 17.6299 20.7717 17.4604 21.3418 17.4604C21.7204 17.4604 22.0953 17.5352 22.445 17.6803C22.7948 17.8255 23.1126 18.0383 23.3803 18.3066C23.648 18.5748 23.8604 18.8933 24.0052 19.2437C24.1501 19.5942 24.2247 19.9699 24.2247 20.3492Z" fill="#00CEB5"/>
<path d="M42.6856 20.3493C42.6856 20.9213 42.5161 21.4804 42.1986 21.9558C41.8812 22.4312 41.43 22.8015 40.9023 23.0196C40.3746 23.2378 39.7941 23.2941 39.2345 23.1813C38.6748 23.0686 38.1612 22.7918 37.7587 22.3862C37.3561 21.9806 37.0828 21.4644 36.9734 20.903C36.864 20.3416 36.9233 19.7602 37.144 19.2327C37.3646 18.7051 37.7366 18.2551 38.2128 17.9396C38.6889 17.6241 39.2479 17.4573 39.8187 17.4605C40.5805 17.4647 41.3097 17.7709 41.8469 18.3122C42.3841 18.8535 42.6856 19.5859 42.6856 20.3493Z" fill="#00CEB5"/>
<path d="M61.1446 20.3492C61.1446 20.9206 60.9755 21.4791 60.6588 21.9541C60.342 22.4292 59.8917 22.7995 59.365 23.0181C58.8382 23.2368 58.2586 23.294 57.6993 23.1825C57.1401 23.071 56.6264 22.7959 56.2233 22.3919C55.8201 21.9879 55.5455 21.4732 55.4343 20.9128C55.3231 20.3524 55.3802 19.7716 55.5984 19.2437C55.8165 18.7159 56.186 18.2647 56.6601 17.9473C57.1342 17.6299 57.6916 17.4604 58.2618 17.4604C59.0263 17.4604 59.7596 17.7648 60.3002 18.3066C60.8409 18.8483 61.1446 19.5831 61.1446 20.3492Z" fill="#00CEB5"/>
<path d="M79.6368 20.3492C79.6368 20.9206 79.4677 21.4791 79.1509 21.9541C78.8342 22.4292 78.3839 22.7995 77.8572 23.0181C77.3304 23.2368 76.7507 23.294 76.1915 23.1825C75.6323 23.071 75.1186 22.7959 74.7155 22.3919C74.3123 21.9879 74.0377 21.4732 73.9265 20.9128C73.8153 20.3524 73.8723 19.7716 74.0905 19.2437C74.3087 18.7159 74.6782 18.2647 75.1523 17.9473C75.6264 17.6299 76.1838 17.4604 76.7539 17.4604C77.1325 17.4604 77.5074 17.5352 77.8572 17.6803C78.2069 17.8255 78.5247 18.0383 78.7924 18.3066C79.0601 18.5748 79.2725 18.8933 79.4173 19.2437C79.5622 19.5942 79.6368 19.9699 79.6368 20.3492Z" fill="#00CEB5"/>
<path d="M98.0807 20.3492C98.0839 20.9244 97.9165 21.4876 97.5999 21.9673C97.2833 22.4471 96.8317 22.8219 96.3023 23.0442C95.7729 23.2665 95.1896 23.3263 94.6262 23.216C94.0629 23.1058 93.5449 22.8304 93.1379 22.4248C92.7309 22.0192 92.4532 21.5017 92.3401 20.9378C92.2269 20.3739 92.2834 19.789 92.5023 19.2573C92.7212 18.7256 93.0928 18.271 93.5698 17.9511C94.0469 17.6312 94.6079 17.4605 95.1819 17.4604C95.948 17.4604 96.6829 17.7643 97.2261 18.3056C97.7692 18.8469 98.0765 19.5816 98.0807 20.3492Z" fill="#00CEB5"/>
<path d="M116.54 20.3493C116.543 20.9251 116.375 21.4889 116.058 21.969C115.741 22.4492 115.288 22.8239 114.758 23.0458C114.227 23.2676 113.643 23.3265 113.079 23.2149C112.516 23.1033 111.998 22.8263 111.591 22.4191C111.185 22.012 110.908 21.4929 110.797 20.928C110.686 20.363 110.745 19.7777 110.966 19.2462C111.187 18.7148 111.561 18.2613 112.04 17.9434C112.52 17.6254 113.082 17.4573 113.657 17.4605C114.421 17.4605 115.155 17.7648 115.695 18.3066C116.236 18.8483 116.54 19.5831 116.54 20.3493Z" fill="#00CEB5"/>
<path d="M42.6856 2.88882C42.6856 3.46085 42.5161 4.01999 42.1986 4.49539C41.8812 4.97078 41.43 5.34103 40.9023 5.5592C40.3746 5.77737 39.7941 5.83363 39.2345 5.72087C38.6748 5.60811 38.1612 5.33139 37.7587 4.92579C37.3561 4.52019 37.0828 4.00396 36.9734 3.44255C36.864 2.88113 36.9233 2.2998 37.144 1.77223C37.3646 1.24466 37.7366 0.794609 38.2128 0.479113C38.6889 0.163618 39.2479 -0.00311625 39.8187 4.41084e-05C40.5805 0.00426176 41.3097 0.310475 41.8469 0.85177C42.3841 1.39306 42.6856 2.12543 42.6856 2.88882Z" fill="#00CEB5"/>
<path d="M61.1446 2.88878C61.1446 3.46012 60.9755 4.01864 60.6588 4.4937C60.342 4.96875 59.8917 5.33902 59.365 5.55766C58.8382 5.77631 58.2586 5.83351 57.6993 5.72205C57.1401 5.61059 56.6264 5.33546 56.2233 4.93145C55.8201 4.52745 55.5455 4.01272 55.4343 3.45235C55.3231 2.89198 55.3802 2.31115 55.5984 1.78329C55.8165 1.25544 56.186 0.80427 56.6601 0.486847C57.1342 0.169424 57.6916 0 58.2618 0C59.0263 0 59.7596 0.304352 60.3002 0.846104C60.8409 1.38785 61.1446 2.12263 61.1446 2.88878Z" fill="#00CEB5"/>
<path d="M79.6368 2.88895C79.6368 3.45893 79.4684 4.01617 79.1531 4.49051C78.8377 4.96485 78.3893 5.3351 77.8644 5.55465C77.3395 5.7742 76.7615 5.83324 76.2031 5.72434C75.6448 5.61544 75.1311 5.34346 74.7267 4.94265C74.3223 4.54183 74.0452 4.03009 73.9304 3.47184C73.8156 2.91359 73.8682 2.33378 74.0815 1.80541C74.2948 1.27703 74.6594 0.823691 75.1292 0.502464C75.5991 0.181237 76.1533 0.00647449 76.7221 0.000176374C77.1033 -0.00404529 77.4816 0.0675583 77.8351 0.210842C78.1885 0.354125 78.5101 0.566242 78.7812 0.834911C79.0523 1.10358 79.2675 1.42346 79.4143 1.77604C79.5612 2.12862 79.6368 2.50689 79.6368 2.88895Z" fill="#00CEB5"/>
<path d="M98.0807 2.88878C98.0839 3.46395 97.9165 4.02711 97.5999 4.50689C97.2833 4.98667 96.8317 5.36146 96.3023 5.58376C95.7729 5.80606 95.1896 5.86587 94.6262 5.7556C94.0629 5.64532 93.5449 5.36994 93.1379 4.96435C92.7309 4.55876 92.4532 4.04122 92.3401 3.47732C92.2269 2.91342 92.2834 2.32856 92.5023 1.79686C92.7212 1.26516 93.0928 0.810555 93.5698 0.490667C94.0469 0.170779 94.6079 8.68263e-06 95.1819 3.31405e-10C95.948 -1.15869e-05 96.6829 0.303831 97.2261 0.845128C97.7692 1.38642 98.0765 2.12116 98.0807 2.88878Z" fill="#00CEB5"/>
</svg>
